<svg width="481" height="156" viewBox="0 0 481 156" fill="none" xmlns="http://www.w3.org/2000/svg">
<g clip-path="url(#clip0_41_3863)">
<path d="M468.836 116.476V119.43H471.705V116.476H468.836ZM474.574 116.476V119.43H477.612V116.476H474.574ZM477.612 122.215H474.574V129.95H471.705V122.215H468.836V123.565H465.91V108.037H471.705V103.93H474.574V108.037H480.538V123.537H477.612V122.215ZM477.612 113.804V110.822H474.574V113.804H477.612ZM471.705 113.804V110.822H468.836V113.804H471.705ZM459.187 119.289C458.315 120.189 457.359 121.117 456.346 122.018L455.418 118.923C458.709 115.998 460.96 113.129 462.169 110.344H456.037V107.531H459.609C459.244 106.49 458.822 105.477 458.372 104.521L461.128 103.733C461.663 105.112 462.085 106.378 462.394 107.531H465.123V110.006C464.476 111.947 463.463 113.888 462.085 115.829V115.998C463.379 116.786 464.588 117.686 465.685 118.698L464.138 121.117C463.435 120.358 462.76 119.683 462.085 119.12V130.006H459.187V119.289Z" fill="#1C8B7F"/>
<path d="M420.931 115.408C420.143 116.364 419.327 117.265 418.455 118.137L417.471 114.986C420.312 111.864 422.422 108.179 423.8 103.931L426.585 105.225C425.91 107.307 424.981 109.332 423.856 111.245V130.064H420.931V115.408ZM426.416 107.279H431.761L432.52 103.931L435.389 104.212C435.164 105.281 434.911 106.294 434.686 107.279H442.675V110.092H433.955C433.73 110.935 433.505 111.751 433.28 112.511H443.828V115.296H432.351C431.986 116.28 431.62 117.208 431.282 118.052H442.337V120.584C441.24 122.328 439.552 124.072 437.302 125.816C438.427 126.407 439.496 127.026 440.537 127.701L438.905 130.232C435.474 127.954 431.929 126.154 428.329 124.86L429.876 122.553C431.564 123.172 433.195 123.819 434.742 124.55C436.599 123.312 438.062 122.047 439.187 120.753H427.457C428.188 119.009 428.863 117.18 429.51 115.296H425.178V112.511H430.382C430.607 111.695 430.832 110.879 431.057 110.092H426.416V107.279Z" fill="#1C8B7F"/>
<path d="M402.873 122.918H393.674C394.743 123.79 395.559 124.55 396.15 125.225L394.153 126.631C393.421 125.787 392.465 124.831 391.283 123.79L392.662 122.918H382.648V120.837H400.06V119.768H383.913V117.827H400.06V116.758H382.985V114.676H385.967V113.551H381.241V111.526H385.967V110.485H382.282V108.46H385.967V107.447H381.776V105.422H385.967V104.128H388.836V105.422H392.577V107.447H388.836V108.46H392.155V110.485H388.836V111.526H392.549V113.551H388.836V114.676H397.444V113.551H393.365V111.526H397.444V110.485H393.956V108.46H397.444V107.447H393.506V105.422H397.444V104.128H400.313V105.422H404.476V107.447H400.313V108.46H403.885V110.485H400.313V111.526H404.87V113.551H400.313V114.676H402.873V122.918ZM382.676 123.847L385.207 124.409C384.645 126.406 383.857 128.122 382.845 129.585L380.51 128.122C381.522 126.772 382.226 125.366 382.676 123.847ZM396.994 129.501H389.427C387.514 129.501 386.558 128.629 386.558 126.885V123.762H389.399V126.266C389.399 126.772 389.652 127.025 390.186 127.025H396.431C396.881 127.025 397.191 126.913 397.388 126.688C397.641 126.434 397.81 125.703 397.894 124.494L400.566 125.337C400.341 127.363 399.947 128.572 399.413 128.966C398.85 129.304 398.063 129.501 396.994 129.501ZM402.676 123.312C404.223 124.944 405.404 126.406 406.248 127.672L404.111 129.163C403.239 127.785 402.057 126.266 400.594 124.606L402.676 123.312Z" fill="#1C8B7F"/>
<path d="M346.642 108.291C346.135 109.022 345.573 109.641 345.01 110.204H348.667C348.78 109.585 348.864 108.966 348.92 108.291H346.642ZM347.823 112.876H342.788V110.204H344.026L342.647 108.488C343.941 107.363 345.066 105.759 346.051 103.678L348.695 104.268C348.498 104.775 348.301 105.281 348.076 105.731H355.643V108.291H351.677C351.621 108.966 351.564 109.585 351.48 110.204H356.431V112.876H350.889L350.805 113.129C352.887 114.198 354.631 115.239 356.065 116.308L354.406 117.968H365.207V130.091H362.226V129.051H349.23V130.091H346.276V118.643C345.601 119.036 344.898 119.43 344.166 119.796L342.197 117.405C345.066 116.139 346.951 114.62 347.823 112.876ZM349.23 126.463H362.226V124.831H349.23V126.463ZM349.23 122.3H362.226V120.555H349.23V122.3ZM347.261 117.968H353.505C352.493 117.067 351.283 116.195 349.849 115.295C349.202 116.252 348.33 117.152 347.261 117.968ZM357.19 105.816H367.261V116.589H357.19V105.816ZM364.392 114.029V108.404H360.06V114.029H364.392Z" fill="#1C8B7F"/>
<path d="M299.719 115.52C299.325 116.055 298.931 116.533 298.537 116.983L296.793 114.761C298.931 112.061 300.394 108.46 301.153 103.931L304.023 104.437C303.798 105.675 303.516 106.828 303.235 107.954H310.886V110.795H309.086C308.861 115.267 307.82 119.093 305.935 122.272C307.651 124.578 309.649 126.35 311.955 127.616L310.267 130.12C307.933 128.798 305.935 126.997 304.248 124.691C302.56 126.772 300.45 128.516 297.975 129.923L296.371 127.391C296.006 128.91 294.768 129.67 292.686 129.67C292.293 129.67 291.646 129.613 290.689 129.501L290.014 126.997C290.858 127.054 291.589 127.11 292.236 127.11C293.108 127.11 293.615 126.66 293.783 125.816C293.896 124.972 293.98 121.934 294.037 116.758H291.308C290.914 122.609 289.733 127.026 287.764 130.007L285.457 127.982C287.595 124.86 288.664 119.824 288.72 112.876V110.738H286.104V107.897H291.027C290.548 106.716 290.014 105.591 289.423 104.494L292.264 103.706C292.968 105.225 293.53 106.632 293.98 107.897H298.003V110.738H291.449V112.876C291.449 113.27 291.421 113.664 291.421 114.058H296.793C296.793 121.146 296.653 125.535 296.428 127.166C298.987 125.844 301.041 124.156 302.588 122.131C301.463 120.162 300.506 117.968 299.719 115.52ZM302.279 110.795C301.997 111.498 301.688 112.145 301.407 112.736C302.166 115.295 303.094 117.546 304.191 119.515C305.429 117.011 306.16 114.114 306.329 110.795H302.279Z" fill="#1C8B7F"/>
<path d="M249.93 105.394H272.208V108.235H267.792V114.704H273.615V117.546H267.792V129.613H264.838V117.546H257.553C257.272 120.302 256.709 122.637 255.893 124.522C254.796 126.885 252.996 128.713 250.492 129.979L248.889 127.475C251.167 126.153 252.686 124.494 253.474 122.524C253.98 121.118 254.346 119.458 254.571 117.546H248.495V114.704H254.768C254.768 114.536 254.796 114.395 254.796 114.226V108.235H249.93V105.394ZM257.778 108.235V114.226C257.778 114.395 257.75 114.536 257.75 114.704H264.838V108.235H257.778Z" fill="#1C8B7F"/>
<path d="M212.83 104.381C214.799 105.816 216.487 107.25 217.865 108.657L215.868 110.626C214.686 109.276 213.027 107.841 210.861 106.266L212.83 104.381ZM212.324 111.273C214.18 112.651 215.727 114.03 216.993 115.38L215.024 117.377C213.955 116.083 212.38 114.677 210.354 113.158L212.324 111.273ZM214.799 118.98L217.331 119.993C216.149 123.537 214.799 126.857 213.336 129.951L210.608 128.741C212.239 125.535 213.618 122.3 214.799 118.98ZM222.732 109.416H226.529C226.754 108.741 226.951 108.094 227.092 107.447H221.353V114.48C221.241 120.949 220.172 126.125 218.118 130.063L215.896 128.094C217.584 124.831 218.456 120.274 218.54 114.48V104.859H235.84V107.447H229.848C229.68 108.122 229.511 108.769 229.286 109.416H234.462V119.852H230.045V127.138C230.045 128.995 229.173 129.923 227.429 129.923H225.066L224.447 127.279C225.123 127.391 225.798 127.447 226.473 127.447C226.979 127.447 227.26 127.11 227.26 126.435V119.852H222.732V109.416ZM231.902 117.546V115.689H225.291V117.546H231.902ZM225.291 113.579H231.902V111.667H225.291V113.579ZM223.069 121.456L225.657 122.018C224.982 124.55 224.054 126.716 222.816 128.573L220.453 127.082C221.691 125.338 222.563 123.453 223.069 121.456ZM233.59 121.287C234.63 123.2 235.53 125.253 236.318 127.447L233.843 128.544C233.027 126.125 232.127 123.987 231.17 122.131L233.59 121.287Z" fill="#1C8B7F"/>
<path d="M174.543 105.394H196.822V108.235H192.405V114.704H198.228V117.546H192.405V129.613H189.452V117.546H182.166C181.885 120.302 181.322 122.637 180.506 124.522C179.409 126.885 177.609 128.713 175.106 129.979L173.502 127.475C175.781 126.153 177.3 124.494 178.087 122.524C178.594 121.118 178.959 119.458 179.184 117.546H173.108V114.704H179.381C179.381 114.536 179.409 114.395 179.409 114.226V108.235H174.543V105.394ZM182.391 108.235V114.226C182.391 114.395 182.363 114.536 182.363 114.704H189.452V108.235H182.391Z" fill="#1C8B7F"/>
<path d="M107.98 76.8344C107.98 78.3885 107.935 79.9448 107.993 81.4968C108.054 83.0834 107.749 84.6072 107.392 86.1333C107.105 87.3567 106.906 88.6082 106.504 89.7927C105.994 91.2929 105.41 92.7821 104.693 94.1915C103.718 96.1066 102.564 97.9179 101.189 99.5953C100.03 101.007 98.755 102.286 97.4192 103.523C95.6986 105.112 93.7857 106.417 91.7603 107.573C89.5663 108.827 87.2081 109.694 84.811 110.44C83.7799 110.762 82.6538 110.773 81.6098 111.064C80.6587 111.33 79.6838 111.159 78.763 111.348C75.8579 111.938 72.9334 111.507 70.0218 111.618C69.2912 111.646 68.5433 111.311 67.8127 111.345C66.211 111.419 64.6677 111.071 63.1395 110.751C61.086 110.321 59.1082 109.592 57.1802 108.734C54.2815 107.444 51.6488 105.743 49.3014 103.627C48.0823 102.526 46.9799 101.292 45.8645 100.084C43.9213 97.9785 42.4926 95.5273 41.3275 92.9356C40.5364 91.1761 39.8382 89.3799 39.4772 87.4518C39.2589 86.2889 39.0622 85.1174 38.8136 83.9718C38.6126 83.0466 38.5737 82.1539 38.5672 81.2482C38.5413 77.967 38.5543 74.6858 38.5607 71.4046C38.5607 70.8621 38.4505 70.2979 38.8309 69.8094C38.9044 69.7165 38.8958 69.5414 38.8915 69.4074C38.8288 68.0564 39.3281 66.8135 39.6199 65.5296C40.0976 63.4307 40.8822 61.4335 41.8506 59.5357C42.8514 57.5751 44.0597 55.7292 45.456 53.9935C46.6492 52.5128 47.9958 51.203 49.3706 49.9212C50.8728 48.5205 52.5804 47.39 54.368 46.359C55.7579 45.557 57.1693 44.8156 58.6651 44.2688C60.5392 43.5857 62.4456 43.0389 64.4213 42.6368C68.0397 41.9019 71.671 42.1397 75.3003 42.0748C75.8882 42.064 76.4761 42.0791 77.0619 42.0727C78.709 42.051 80.3237 42.2694 81.9232 42.6563C82.3858 42.7687 82.8613 42.8465 83.3347 42.8897C84.9126 43.0345 86.3414 43.6873 87.8004 44.2083C90.8762 45.3085 93.6797 46.9577 96.2001 48.9982C98.3616 50.7469 100.357 52.716 101.935 55.044C102.683 56.1464 103.5 57.2099 104.148 58.3663C104.961 59.8145 105.62 61.3405 106.199 62.9076C106.707 64.2845 106.967 65.7155 107.36 67.1161C108.201 70.1055 107.948 73.1684 107.976 76.2119C107.976 76.4194 107.976 76.6269 107.976 76.8344H107.98ZM92.4866 75.9806C92.3504 74.7939 92.7157 73.2722 92.2272 71.785C92.037 71.2101 92.091 70.5487 91.8684 69.991C91.0729 68.0067 90.2797 66.0224 88.9827 64.2759C87.7658 62.6375 86.3673 61.1979 84.7332 60.0004C82.7078 58.5154 80.4015 57.6054 77.9892 56.9591C77.3688 56.7927 76.7247 56.6025 76.0957 56.6154C73.4046 56.6673 70.707 56.3344 68.0332 57.1601C66.4358 57.6551 64.8622 58.1912 63.4378 59.0104C61.1336 60.3333 59.1904 62.0971 57.6211 64.291C55.332 67.4922 54.0762 71.0004 54.0503 74.9409C54.0438 76.0108 54.0762 77.083 54.0438 78.1529C54.0027 79.5341 54.2189 80.9153 54.6187 82.1863C55.3623 84.5424 56.3696 86.8012 57.9453 88.779C58.9785 90.0759 60.1134 91.2756 61.4211 92.2526C63.1114 93.5149 64.9552 94.5049 67.0216 95.1512C68.9994 95.7694 70.9837 96.0828 73.022 96.1628C73.8369 96.1952 74.6583 95.9812 75.4753 95.9855C77.4661 95.992 79.2948 95.3284 81.0953 94.6216C83.2504 93.7786 85.1482 92.4752 86.8039 90.8757C88.0295 89.6933 89.1535 88.3942 89.9381 86.8552C90.3834 85.982 90.7811 85.0871 91.2178 84.2095C92.0716 82.4998 92.3958 80.6668 92.4779 78.7841C92.5147 77.9562 92.4844 77.1262 92.4844 75.9849L92.4866 75.9806Z" fill="#1C8B7F"/>
<path d="M219.149 51.6252C219.093 55.931 218.546 60.0271 216.732 63.8444C213.217 71.2454 207.438 75.696 199.282 76.9216C194.838 77.5895 190.431 77.3561 186.207 75.7544C179.288 73.1324 174.721 68.1739 172.635 61.1187C170.72 54.6449 170.88 48.0911 173.357 41.7946C176.8 33.049 183.33 28.1294 192.726 27.1092C196.66 26.6833 200.547 26.9319 204.28 28.2894C211.307 30.8443 215.725 35.8958 217.938 42.9532C218.833 45.8107 219.099 48.7677 219.149 51.6231V51.6252ZM207.587 52.2888C207.569 49.1957 207.215 46.1587 205.948 43.2947C203.836 38.5155 199.965 36.153 194.76 36.4145C190.975 36.6048 188.016 38.2648 185.909 41.3882C185.278 42.3242 184.763 43.3574 184.324 44.4014C183.36 46.6905 183.053 49.12 183.012 51.5863C182.956 54.8999 183.33 58.1422 184.845 61.1468C187.928 67.2552 193.61 68.751 198.93 67.2574C202.637 66.2155 204.93 63.5915 206.307 60.1071C207.297 57.6019 207.602 54.9691 207.589 52.2888H207.587Z" fill="#1C8B7F"/>
<path d="M478.279 29.0844C478.279 32.1473 478.279 35.1151 478.279 38.0829C478.279 38.4265 478.279 38.7681 478.279 39.2177C477.985 39.1139 477.767 39.0642 477.572 38.9669C472.609 36.4639 467.331 35.6944 461.862 36.3039C455.965 36.961 451.176 41.3035 449.719 47.2564C448.774 51.1169 448.854 55.0011 450.036 58.8162C451.683 64.1293 456.084 67.5899 461.644 67.9617C463.682 68.0978 465.723 68.0957 467.722 67.5726C468.319 67.417 468.898 67.2008 469.52 66.9998V57.4566H459.921V48.7565H480.486V73.2272C479.409 73.7286 478.279 74.3187 477.101 74.7943C473.675 76.1755 470.089 76.8434 466.416 77.1071C463.511 77.3168 460.615 77.3016 457.727 76.8909C451.461 75.9982 446.113 73.4282 442.184 68.3162C439.814 65.2317 438.507 61.6997 437.945 57.8781C437.314 53.594 437.346 49.3163 438.55 45.1424C441.14 36.1656 447.082 30.511 456.03 27.9972C459.794 26.9402 463.661 26.7889 467.545 27.0201C470.692 27.206 473.796 27.66 476.816 28.5959C477.276 28.7386 477.73 28.9007 478.279 29.0844Z" fill="#1C8B7F"/>
<path d="M227.588 41.704H238.216V46.6366C238.283 46.656 238.35 46.6755 238.419 46.6971C238.557 46.5242 238.702 46.3534 238.832 46.174C242.012 41.838 246.371 40.3292 251.566 40.9431C257.447 41.637 260.953 45.1754 262.579 50.6376C264.208 56.1149 264.029 61.6225 262.133 67.0284C261.167 69.7844 259.561 72.1426 257.309 74.0253C254.313 76.5305 250.8 77.4103 246.972 77.2006C243.538 77.0125 240.723 75.6054 238.655 72.8084C238.594 72.7262 238.516 72.6549 238.441 72.5857C238.423 72.5706 238.38 72.5836 238.248 72.5836V92.1757C237.425 92.4134 228.995 92.474 227.64 92.2816C227.443 91.5359 227.376 43.2235 227.581 41.7061L227.588 41.704ZM237.957 59.4199C238.062 60.6887 238.067 61.9748 238.292 63.222C238.858 66.3778 241.125 68.6518 244.007 68.9695C247.264 69.3283 249.906 68.0098 251.384 64.8323C251.602 64.3654 251.797 63.8813 251.942 63.3884C252.679 60.9005 252.78 58.3564 252.463 55.8058C252.335 54.792 252.065 53.7696 251.693 52.8164C251.066 51.2017 249.918 50.041 248.243 49.466C246.769 48.9602 245.254 48.8716 243.754 49.2434C240.927 49.9459 239.357 51.941 238.51 54.5975C238.008 56.1646 238.008 57.7901 237.957 59.4242V59.4199Z" fill="#1C8B7F"/>
<path d="M429.044 28.8701V38.8304C428.785 38.7029 428.601 38.6272 428.435 38.5278C424.533 36.2236 420.307 35.3136 415.811 35.6594C414.071 35.7935 412.398 36.2366 410.989 37.3454C409.087 38.8434 408.825 41.2513 410.375 43.1059C410.771 43.5793 411.233 44.0137 411.733 44.3726C412.459 44.8957 413.215 45.395 414.013 45.7927C415.496 46.5298 417.03 47.1588 418.52 47.8829C420.444 48.8167 422.374 49.744 424.241 50.7793C425.852 51.6721 427.242 52.8739 428.422 54.2983C430.108 56.3345 430.998 58.6884 431.167 61.3146C431.273 62.9725 431.247 64.6304 430.89 66.2645C430.134 69.723 428.188 72.3406 425.208 74.2082C422.821 75.7039 420.169 76.4497 417.413 76.8366C412.26 77.5607 407.139 77.3532 402.094 76.0368C400.735 75.6823 399.429 75.1246 398.087 74.6578V63.7809C398.467 64.0468 398.742 64.2305 399.008 64.4272C403.076 67.4404 407.643 68.8281 412.699 68.5795C414.19 68.506 415.647 68.2229 417.005 67.5571C420.026 66.07 420.638 62.8709 418.26 60.4824C417.374 59.5919 416.291 58.8375 415.18 58.2431C413.451 57.3158 411.614 56.5917 409.835 55.753C408.276 55.0181 406.681 54.3351 405.203 53.4618C403.994 52.7463 402.849 51.8731 401.82 50.9155C398.72 48.032 397.583 44.3726 397.879 40.2268C398.281 34.5852 401.422 30.9689 406.463 28.8074C408.996 27.7201 411.679 27.2273 414.415 27.0501C418.961 26.7583 423.459 27.0198 427.845 28.3816C428.141 28.4745 428.435 28.5739 428.726 28.682C428.822 28.7166 428.904 28.7879 429.044 28.8744V28.8701Z" fill="#1C8B7F"/>
<path d="M390.298 64.7626V74.684C389.909 74.8548 389.481 75.058 389.04 75.2352C386.386 76.2965 383.606 76.8153 380.775 77.0552C377.774 77.3103 374.776 77.3038 371.776 76.9212C362.129 75.6891 354.828 68.917 353.019 59.3415C351.914 53.4924 352.121 47.6843 354.432 42.1357C357.705 34.2742 363.606 29.3784 371.932 27.6059C377.74 26.3717 383.544 26.7586 389.261 28.3754C389.492 28.4402 389.721 28.5202 389.95 28.6002C390.045 28.6348 390.134 28.6867 390.285 28.7602V39.196C389.914 39.0123 389.587 38.8502 389.261 38.6881C384.771 36.4487 380.04 35.7722 375.157 36.8529C369.811 38.0353 366.327 41.4094 364.764 46.6338C363.558 50.6716 363.567 54.7763 365.021 58.7557C366.893 63.8807 370.633 66.8485 376.052 67.5769C380.744 68.2081 385.195 67.3348 389.401 65.1798C389.669 65.0436 389.946 64.9269 390.298 64.7648V64.7626Z" fill="#1C8B7F"/>
<path d="M311.088 41.7161H321.686V47.1308C321.996 46.7784 322.16 46.6293 322.279 46.4499C325.923 40.9401 331.887 39.9891 336.973 41.3465C339.655 42.062 341.59 43.7588 342.828 46.2445C343.879 48.3542 344.302 50.6173 344.456 52.941C344.523 53.9742 344.519 55.0117 344.519 56.0492C344.523 62.3717 344.521 68.692 344.521 75.0145V76.3806C340.969 76.4281 337.498 76.3935 333.914 76.4044C333.895 75.9288 333.862 75.5289 333.862 75.1291C333.86 69.2562 333.882 63.3833 333.843 57.5126C333.834 56.2092 333.683 54.8928 333.456 53.6067C333.322 52.8437 332.991 52.0828 332.606 51.3998C331.826 50.0164 330.581 49.2664 328.999 49.0934C325.389 48.7 322.514 50.9351 321.881 54.6572C321.753 55.4029 321.695 56.1681 321.695 56.9246C321.68 63.005 321.686 69.0833 321.686 75.1636V76.3395H311.149C310.933 75.5959 310.87 43.0779 311.086 41.714L311.088 41.7161Z" fill="#1C8B7F"/>
<path d="M303.192 62.0992H280.557C280.784 64.9114 281.789 67.0859 284.24 68.4217C285.699 69.2171 287.292 69.5197 288.922 69.6019C292.653 69.7921 296.21 69.1393 299.507 67.2998C299.652 67.2199 299.803 67.1529 300.051 67.0318V74.6728C298.692 75.4553 297.2 75.9762 295.655 76.335C291.263 77.3531 286.832 77.6514 282.405 76.6852C276.201 75.3299 272.181 71.5645 270.618 65.3869C269.503 60.9817 269.598 56.5484 271.044 52.2124C273.292 45.4706 279.545 40.9486 286.663 40.8189C288.749 40.78 290.811 40.9313 292.813 41.5344C298.093 43.1231 301.223 46.7718 302.533 52.007C302.948 53.6649 303.062 55.4114 303.173 57.1277C303.276 58.7337 303.194 60.3527 303.194 62.097L303.192 62.0992ZM293.23 55.4568C293.271 53.8292 293.044 52.381 292.419 51.0084C291.978 50.04 291.308 49.2597 290.361 48.7561C288.524 47.7769 285.444 47.5672 283.326 49.5948C282.046 50.8203 281.192 52.2902 280.771 54.0064C280.658 54.4604 280.604 54.9294 280.511 55.4568H293.23Z" fill="#1C8B7F"/>
<path d="M10.2934 104.573C11.212 104.573 12.0658 104.534 12.911 104.597C13.1531 104.616 13.46 104.885 13.5876 105.12C14.1712 106.197 14.6705 107.318 15.2563 108.395C15.8896 109.56 16.5856 110.69 17.2535 111.836C17.6469 112.51 18.0036 113.211 18.4402 113.857C19.3134 115.15 20.1673 116.462 21.1443 117.674C22.7784 119.702 24.3844 121.775 26.2195 123.61C28.3227 125.713 30.6226 127.63 32.9138 129.537C36.2901 132.349 40.036 134.616 43.9657 136.564C46.0948 137.621 48.2671 138.609 50.4892 139.447C52.3784 140.161 54.3648 140.625 56.3124 141.185C57.5812 141.548 58.8478 141.92 60.1318 142.221C60.9553 142.413 61.8091 142.467 62.6456 142.61C63.5124 142.757 64.3749 142.934 65.2373 143.1C65.3713 143.126 65.501 143.191 65.635 143.2C66.7979 143.284 67.9608 143.409 69.1259 143.425C71.6484 143.459 74.1731 143.461 76.6956 143.425C78.1373 143.405 79.5812 143.338 81.0143 143.191C82.0194 143.087 83.0051 142.796 84.0037 142.614C85.0737 142.419 86.1609 142.309 87.2201 142.074C89.8614 141.486 92.4466 140.716 95.0102 139.823C97.2301 139.05 99.4197 138.222 101.527 137.202C103.518 136.235 105.461 135.157 107.372 134.041C108.874 133.164 110.325 132.187 111.751 131.188C112.815 130.445 113.846 129.638 114.823 128.785C116.623 127.209 118.435 125.637 120.129 123.954C122.224 121.876 124.109 119.613 125.896 117.253C127.243 115.478 128.417 113.604 129.627 111.75C130.289 110.734 130.82 109.631 131.391 108.559C132.076 107.269 132.742 105.967 133.455 104.597C134.46 104.565 135.509 104.461 136.706 104.692C136.44 105.297 136.246 105.795 136.008 106.268C135.31 107.671 134.631 109.084 133.875 110.457C133.016 112.011 132.134 113.559 131.17 115.046C130.226 116.503 129.195 117.91 128.142 119.293C127.068 120.705 125.983 122.116 124.792 123.428C123.411 124.948 121.945 126.398 120.449 127.808C118.904 129.264 117.319 130.687 115.67 132.025C114.373 133.077 112.944 133.968 111.587 134.947C109.086 136.75 106.36 138.181 103.633 139.581C101.648 140.599 99.5278 141.367 97.4355 142.156C95.4771 142.895 93.4842 143.546 91.4869 144.172C90.5553 144.464 89.574 144.603 88.6164 144.817C87.367 145.098 86.1285 145.428 84.8705 145.657C83.9994 145.817 83.0894 145.776 82.2204 145.947C80.4069 146.306 78.535 146.083 76.7323 146.531C76.5032 146.587 76.2503 146.548 76.0082 146.548C74.3482 146.548 72.6881 146.587 71.0302 146.537C69.5258 146.492 68.0062 146.464 66.5277 146.217C65.0752 145.975 63.6226 145.839 62.1636 145.69C61.0656 145.577 59.9913 145.223 58.9062 144.979C58.4739 144.881 58.0329 144.812 57.6049 144.7C56.1697 144.319 54.7193 143.987 53.3121 143.522C51.356 142.876 49.4257 142.149 47.4998 141.419C46.0732 140.876 44.6423 140.325 43.2632 139.674C41.9706 139.063 40.7364 138.332 39.4935 137.621C37.0272 136.209 34.6192 134.703 32.3669 132.961C31.0657 131.956 29.7601 130.955 28.4719 129.932C28.0179 129.571 27.6051 129.158 27.1879 128.754C26.0034 127.611 24.7627 126.519 23.6603 125.302C21.5701 122.994 19.415 120.735 17.6988 118.111C16.5986 116.429 15.3708 114.83 14.3376 113.111C13.2698 111.335 12.349 109.465 11.4001 107.619C11.0002 106.839 10.6825 106.015 10.3453 105.204C10.2847 105.062 10.3128 104.882 10.2891 104.571L10.2934 104.573Z" fill="#1C8B7F"/>
<path d="M11.7432 48.0006C11.795 46.8658 12.3851 46.1655 12.7937 45.4025C14.1273 42.9037 15.582 40.4698 17.2551 38.1916C19.6068 34.9904 22.0926 31.8886 25.0063 29.1629C26.4848 27.7795 27.9006 26.3183 29.472 25.0473C31.9448 23.0479 34.5041 21.1501 37.2254 19.4857C39.7868 17.9186 42.4088 16.4553 45.1626 15.2729C47.6202 14.2181 50.1665 13.3686 52.6804 12.4478C53.6617 12.0868 54.6517 11.7323 55.659 11.4556C56.5754 11.2049 57.52 11.0601 58.4538 10.8763C59.8134 10.6083 61.1709 10.3165 62.5391 10.096C63.6199 9.92311 64.7331 9.9296 65.8009 9.70912C67.5733 9.34382 69.3717 9.57727 71.1312 9.35679C72.1514 9.22926 73.1868 8.9742 74.1746 9.14929C75.9514 9.46271 77.7347 9.30708 79.5049 9.46271C81.2277 9.61401 82.9266 10.0593 84.6515 10.1976C86.8023 10.3705 88.8211 11.1163 90.9351 11.4405C92.2255 11.6394 93.4857 12.1192 94.72 12.5818C97.1279 13.4875 99.5337 14.4061 101.894 15.4329C106.269 17.335 110.337 19.7883 114.169 22.6135C116.426 24.2757 118.557 26.0978 120.596 28.0324C123.243 30.5484 125.669 33.2482 127.932 36.1144C129.59 38.2132 131.034 40.4439 132.424 42.7135C133.277 44.1077 134.03 45.5646 134.799 47.0106C134.927 47.2506 134.905 47.5705 134.974 47.9855C133.975 47.9855 133.12 48.0136 132.266 47.9725C131.872 47.9531 131.637 47.6764 131.446 47.2916C130.236 44.8448 128.827 42.5146 127.195 40.3207C126.194 38.9741 125.297 37.541 124.205 36.2743C122.636 34.4521 120.965 32.7143 119.277 30.998C118.121 29.8222 116.897 28.7046 115.637 27.6412C114.254 26.4739 112.816 25.3651 111.353 24.2994C110.225 23.4781 109.06 22.6956 107.843 22.0147C105.523 20.7113 103.184 19.4425 100.807 18.2515C97.9817 16.8378 94.9945 15.8025 91.9726 14.9033C90.2542 14.3932 88.4818 14.0646 86.7288 13.6712C85.38 13.3686 84.0334 13.0292 82.6673 12.8217C81.5152 12.6466 80.3263 12.7158 79.1742 12.5386C76.3383 12.1019 73.4894 12.1949 70.6448 12.2554C68.948 12.2921 67.2577 12.5667 65.5652 12.7374C64.545 12.8412 63.5248 12.9384 62.5088 13.0725C61.9425 13.146 61.3805 13.2713 60.8228 13.4053C58.8515 13.883 56.8629 14.3089 54.9175 14.8773C53.1364 15.3961 51.3899 16.0489 49.6456 16.6887C46.5395 17.8257 43.5847 19.2933 40.7206 20.9404C37.247 22.9377 33.9464 25.1857 30.9311 27.8314C29.3359 29.2321 27.719 30.6219 26.2513 32.1523C24.0444 34.4543 21.9975 36.899 20.1191 39.4885C18.2861 42.0175 16.665 44.6697 15.1822 47.4105C14.9682 47.8061 14.7066 48.0374 14.2095 48.0114C13.4248 47.9703 12.6359 48.0006 11.7453 48.0006H11.7432Z" fill="#1C8B7F"/>
<path d="M0.486953 104.619H2.50798C2.96839 105.666 3.39205 106.658 3.83949 107.641C4.60034 109.31 5.30068 111.013 6.16745 112.626C7.3109 114.748 8.5581 116.819 9.82476 118.875C11.3875 121.41 13.2205 123.755 15.1097 126.058C17.5047 128.978 20.1028 131.68 22.9366 134.187C25.0225 136.033 27.1581 137.812 29.4255 139.416C32.1793 141.365 34.9763 143.263 38.0565 144.696C40.3045 145.743 42.5092 146.888 44.7789 147.885C47.1371 148.922 49.571 149.787 52.0654 150.435C53.894 150.911 55.6838 151.512 57.5751 151.797C59.1682 152.037 60.7526 152.415 62.3499 152.701C64.2175 153.033 66.1153 152.975 67.9656 153.239C71.0976 153.686 74.2189 153.381 77.3423 153.468C78.0772 153.487 78.8165 153.271 79.5557 153.191C80.3036 153.111 81.0558 153.066 81.8059 153.007C82.0112 152.992 82.2209 153.003 82.4241 152.971C83.5978 152.785 84.7693 152.595 85.9387 152.398C86.5374 152.296 87.1319 152.158 87.7328 152.069C90.5211 151.663 93.2295 150.919 95.9055 150.068C99.4915 148.926 103.028 147.653 106.369 145.896C108.058 145.008 109.789 144.191 111.436 143.233C113.124 142.254 114.745 141.16 116.375 140.084C119.538 137.998 122.406 135.538 125.181 132.974C126.461 131.792 127.604 130.461 128.81 129.198C129.048 128.95 129.305 128.721 129.541 128.47C132.312 125.508 134.755 122.29 136.946 118.881C138.531 116.417 140.005 113.89 141.226 111.221C141.862 109.835 142.541 108.467 143.182 107.086C143.425 106.565 143.684 106.037 143.829 105.484C144.038 104.689 144.54 104.475 145.277 104.561C145.547 104.594 145.822 104.607 146.235 104.639C146.165 105.114 146.196 105.579 146.029 105.957C145.003 108.272 143.948 110.572 142.873 112.866C141.834 115.086 140.539 117.163 139.272 119.26C137.802 121.689 136.123 123.967 134.385 126.192C131.91 129.36 129.154 132.3 126.145 134.976C123.949 136.928 121.719 138.858 119.362 140.607C117.173 142.232 114.856 143.715 112.484 145.066C109.798 146.596 107.042 148.038 104.212 149.279C101.832 150.323 99.4029 151.304 96.8652 151.961C95.6894 152.266 94.5437 152.685 93.3765 153.02C92.4665 153.282 91.5479 153.52 90.6206 153.719C89.2999 154.002 87.9749 154.268 86.6412 154.49C85.6663 154.652 84.6764 154.717 83.6972 154.858C82.4608 155.037 81.2287 155.255 79.9945 155.444C79.7567 155.48 79.5125 155.459 79.2704 155.465C77.4093 155.513 75.5461 155.603 73.685 155.599C71.4435 155.595 69.202 155.511 66.9605 155.461C65.83 154.853 64.5547 155.322 63.3486 154.916C62.11 154.499 60.7223 154.542 59.4059 154.337C58.2063 154.151 57.0088 153.935 55.8243 153.671C54.9359 153.472 54.0713 153.167 53.1915 152.927C52.3118 152.688 51.4039 152.536 50.5501 152.227C48.2892 151.412 46.0066 150.675 43.7759 149.759C41.409 148.784 39.0919 147.723 36.8417 146.523C34.4338 145.239 32.0972 143.83 29.8276 142.299C25.6601 139.487 21.7867 136.338 18.3023 132.717C16.6595 131.01 14.9519 129.352 13.4561 127.519C11.621 125.269 9.90906 122.912 8.27927 120.509C6.96506 118.568 5.80215 116.517 4.66519 114.463C3.19967 111.817 1.97625 109.051 0.867383 106.238C0.685814 105.778 0.631776 105.268 0.480469 104.619H0.486953Z" fill="#1C8B7F"/>
<path d="M144.835 47.9049C144.597 47.9417 144.399 47.9892 144.2 47.9979C142.877 48.0498 142.918 48.0303 142.399 46.822C141.88 45.6094 141.292 44.4249 140.687 43.2512C140.05 42.0126 139.408 40.7697 138.673 39.5874C137.614 37.8862 136.479 36.2305 135.35 34.5748C134.581 33.4465 133.818 32.3052 132.951 31.2504C131.538 29.5298 130.091 27.833 128.57 26.2097C127.139 24.6815 125.656 23.19 124.089 21.8023C122.321 20.2352 120.462 18.7632 118.588 17.3236C117.098 16.1823 115.564 15.0886 113.975 14.09C112.393 13.0913 110.687 12.2894 109.097 11.3038C107 10.0047 104.741 9.05145 102.487 8.10038C100.554 7.28548 98.5612 6.60244 96.5748 5.92588C94.5581 5.23851 92.5089 4.6549 90.4122 4.24421C89.1586 3.99996 87.9373 3.59143 86.6836 3.3623C85.3391 3.11589 83.9774 2.90406 82.6156 2.83705C80.9102 2.75275 79.235 2.26425 77.5122 2.4804C75.1627 1.9184 72.772 2.18211 70.4138 2.27505C69.0909 2.32693 67.7248 2.29667 66.4301 2.5366C64.9105 2.81976 63.3737 2.80463 61.8671 3.0705C60.6026 3.2953 59.3619 3.6433 58.1082 3.91782C57.1831 4.11884 56.2385 4.24421 55.322 4.47549C53.1302 5.02884 50.9319 5.55626 48.8309 6.42735C47.6421 6.92018 46.3732 7.21415 45.1822 7.70482C43.4552 8.41596 41.7519 9.18763 40.0681 10.0004C36.8063 11.574 33.6526 13.3659 30.6978 15.4496C28.0975 17.2826 25.6139 19.2928 23.1735 21.3376C21.5481 22.6993 20.0523 24.2254 18.5717 25.7471C17.4995 26.8516 16.5268 28.0556 15.5455 29.2445C14.2983 30.7532 13.0338 32.2511 11.8774 33.8269C10.8917 35.1692 10.0293 36.6045 9.1409 38.0159C8.48812 39.0513 7.82669 40.0888 7.25821 41.1718C6.20122 43.1863 5.19611 45.229 4.20613 47.2781C4.04618 47.6088 3.94026 47.946 3.5447 47.9655C3.067 47.9914 2.54391 48.0476 2.12025 47.8833C1.72902 47.732 1.76576 47.2089 1.92355 46.8652C2.58714 45.417 3.24641 43.9645 3.98998 42.5573C5.382 39.9289 6.83023 37.3286 8.51406 34.8774C9.80665 32.9947 11.2008 31.1812 12.5842 29.3633C14.6852 26.6031 17.0737 24.0935 19.6157 21.7483C21.8572 19.6797 24.1873 17.6954 26.5866 15.8106C29.5241 13.502 32.6627 11.468 35.9785 9.73449C37.9606 8.69696 39.9513 7.66591 41.994 6.75374C44.2506 5.74647 46.5483 4.82998 48.9195 4.11019C49.7928 3.84433 50.6336 3.47254 51.509 3.211C52.3542 2.96026 53.2275 2.80031 54.0813 2.58199C55.1901 2.29883 56.2925 1.99189 57.3992 1.70873C57.5959 1.65902 57.8121 1.68712 58.0131 1.65037C59.444 1.39315 60.8749 1.12944 62.3059 0.867899C62.4075 0.848446 62.5091 0.835476 62.6107 0.82683C63.9724 0.723077 65.332 0.558801 66.6959 0.532862C70.6667 0.457209 74.6374 0.424786 78.6103 0.403171C79.6781 0.396686 80.7524 0.426947 81.8137 0.54367C82.8491 0.658231 83.8671 0.926261 84.8982 1.09054C86.2081 1.29804 87.5266 1.458 88.8386 1.65902C89.4374 1.75196 90.034 1.87517 90.6241 2.01783C92.0723 2.37232 93.5205 2.73114 94.9601 3.11805C95.6107 3.29314 96.2484 3.52442 96.8817 3.7557C98.9179 4.49927 100.978 5.18664 102.975 6.02315C105.327 7.0088 107.683 8.01392 109.924 9.21789C112.875 10.8023 115.719 12.5769 118.456 14.5244C121.819 16.9194 124.953 19.5803 127.921 22.4378C129.147 23.6158 130.295 24.876 131.434 26.1427C133.211 28.1161 134.864 30.1782 136.425 32.3138C137.694 34.0474 138.805 35.8955 139.991 37.6895C141.606 40.1278 142.829 42.7778 144.12 45.3889C144.42 45.9985 144.656 46.6404 144.883 47.2824C144.943 47.4532 144.859 47.678 144.837 47.9093L144.835 47.9049Z" fill="#1C8B7F"/>
<path d="M55.9914 132.643C55.5655 132.371 55.2586 132.174 54.9668 131.986C56.5145 127.213 58.0427 122.506 59.6098 117.677C60.0767 117.798 60.4765 117.902 60.8526 117.999C61.0256 119.099 60.442 119.89 60.1804 120.753C59.4087 123.299 58.5874 125.828 57.7789 128.363C57.3899 129.582 57.0051 130.804 56.5771 132.01C56.4972 132.237 56.2291 132.395 55.9914 132.643Z" fill="#1C8B7F"/>
<path d="M91.5517 132.1C91.3702 132.211 91.1973 132.314 91.0265 132.418C90.5942 132.682 90.3327 132.561 90.1792 132.081C89.8312 130.989 89.4594 129.907 89.1027 128.817C88.3419 126.502 87.5897 124.183 86.8223 121.87C86.4657 120.791 86.0831 119.721 85.7135 118.647C85.5708 118.23 85.748 118.003 86.3641 117.811C86.8526 117.659 87.1574 117.824 87.3043 118.297C87.8555 120.072 88.3916 121.853 88.9687 123.619C89.8139 126.212 90.6958 128.793 91.5453 131.385C91.6144 131.599 91.5539 131.856 91.5539 132.1H91.5517Z" fill="#1C8B7F"/>
<path d="M54.7386 115.759C54.5527 116.254 54.3971 116.816 54.1377 117.324C52.7327 120.078 51.2953 122.817 49.8795 125.566C49.3067 126.679 48.7641 127.808 48.1956 128.953C47.7979 129.141 47.3332 129.133 47.1257 128.726C46.9808 128.443 47.0068 127.97 47.143 127.663C47.6552 126.515 48.2324 125.395 48.803 124.274C49.8297 122.253 50.8694 120.236 51.9026 118.217C52.3522 117.339 52.7975 116.457 53.2558 115.584C53.5476 115.027 53.9085 115.055 54.7386 115.757V115.759Z" fill="#1C8B7F"/>
<path d="M98.817 111.746C100.112 113.479 101.387 115.161 102.632 116.862C104.156 118.944 105.658 121.04 107.165 123.133C107.489 123.585 107.428 123.941 107.001 124.246C106.488 124.609 106.361 124.594 105.941 124.023C104.564 122.145 103.205 120.256 101.828 118.38C100.516 116.59 99.1909 114.809 97.868 113.023C97.4422 112.448 97.6541 111.876 98.3674 111.733C98.5295 111.7 98.7067 111.744 98.817 111.748V111.746Z" fill="#1C8B7F"/>
<path d="M107.445 32.1902C107.255 32.5338 107.149 32.7889 106.991 33.0072C105.926 34.4706 104.845 35.9231 103.777 37.3822C102.603 38.986 101.441 40.5985 100.271 42.2045C99.9102 42.7017 99.5514 43.201 99.1731 43.6852C98.8208 44.1391 98.4576 44.1867 98.0318 43.8689C97.5757 43.5295 97.5822 43.3674 97.9951 42.7838C99.0802 41.2578 100.137 39.7101 101.235 38.1927C102.768 36.0766 104.326 33.9777 105.876 31.8724C106.127 31.5309 106.479 31.3558 106.862 31.5547C107.102 31.68 107.255 31.9697 107.445 32.1837V32.1902Z" fill="#1C8B7F"/>
<path d="M91.9729 115.634C92.1739 115.504 92.282 115.418 92.4008 115.359C93.0255 115.059 93.125 115.081 93.4362 115.686C94.076 116.931 94.6964 118.184 95.334 119.432C96.5921 121.885 97.8587 124.334 99.1189 126.787C99.4085 127.352 99.6852 127.92 99.9835 128.521C99.7155 128.692 99.5577 128.824 99.3761 128.904C98.7946 129.163 98.585 129.094 98.3018 128.547C97.8328 127.639 97.3788 126.727 96.912 125.817C95.9976 124.029 95.0768 122.246 94.1625 120.461C93.4989 119.166 92.831 117.873 92.1933 116.568C92.0528 116.282 92.0377 115.937 91.9707 115.638L91.9729 115.634Z" fill="#1C8B7F"/>
<path d="M39.166 32.2559C39.7648 31.2638 40.2878 31.2162 40.945 32.0981C41.8052 33.2502 42.618 34.4369 43.4675 35.5977C44.3948 36.8643 45.3566 38.1072 46.2753 39.3803C47.0902 40.5108 47.877 41.6629 48.653 42.8193C49.0139 43.3554 48.9556 43.8374 48.5643 44.0687C48.1428 44.3173 47.9051 44.2243 47.4836 43.6429C45.6182 41.0685 43.7571 38.492 41.8852 35.9219C40.986 34.6855 40.0652 33.4642 39.1682 32.2559H39.166Z" fill="#1C8B7F"/>
<path d="M100.02 27.105C99.6353 27.9242 99.3111 28.6591 98.9523 29.3746C97.8412 31.5901 96.7237 33.8036 95.5932 36.0105C94.9145 37.3377 94.225 38.6605 93.5052 39.9682C93.3733 40.206 93.0967 40.4762 92.8524 40.5173C92.1996 40.6253 91.856 40.0893 92.1456 39.456C92.4547 38.7794 92.7941 38.1136 93.1334 37.4522C94.4779 34.8216 95.8245 32.1954 97.1755 29.5691C97.5019 28.9358 97.8304 28.3046 98.1892 27.6886C98.7123 26.7916 98.7253 26.798 100.02 27.105Z" fill="#1C8B7F"/>
<path d="M49.2141 112.359C46.2053 116.377 43.3564 120.53 40.2784 124.548C39.8742 124.349 39.5759 124.2 39.2041 124.016C39.2344 123.817 39.2041 123.554 39.3122 123.376C39.6537 122.823 40.0363 122.291 40.4254 121.768C41.6445 120.123 42.8722 118.485 44.0978 116.846C44.7744 115.941 45.4661 115.046 46.134 114.136C46.5338 113.591 46.9056 113.027 47.2774 112.463C47.8956 111.527 48.2631 111.484 49.2141 112.359Z" fill="#1C8B7F"/>
<path d="M66.0076 119.451C66.2561 119.432 66.4917 119.393 66.7252 119.395C67.5379 119.406 67.6179 119.538 67.3412 120.303C67.272 120.493 67.2245 120.694 67.2007 120.895C67.0278 122.352 66.9586 123.828 66.6647 125.259C66.4118 126.487 66.2821 127.73 66.0292 128.945C65.7784 130.149 65.5925 131.342 65.5039 132.563C65.4607 133.164 65.2661 133.754 65.1213 134.442H63.9411C63.8287 133.642 63.8114 132.853 63.993 132.029C64.2048 131.07 64.2589 130.075 64.4232 129.105C64.5745 128.208 64.7906 127.321 64.9614 126.427C65.0824 125.791 65.1991 125.151 65.277 124.509C65.3807 123.66 65.4153 122.804 65.5342 121.957C65.6466 121.157 65.8303 120.368 66.0076 119.447V119.451Z" fill="#1C8B7F"/>
<path d="M56.4544 23.4478C56.8413 24.7836 57.1331 25.8924 57.4876 26.984C57.9264 28.3306 58.4365 29.6513 58.8796 30.9958C59.5259 32.9563 60.1376 34.9255 60.7644 36.8903C60.9763 37.5539 60.892 37.8565 60.4489 38.0057C59.9452 38.1764 59.5734 37.9862 59.3703 37.3702C58.7477 35.4767 58.1706 33.568 57.5416 31.6767C56.7137 29.1823 55.8556 26.6987 55.0061 24.2108C54.8959 23.8844 54.991 23.6293 55.3001 23.558C55.6784 23.4694 56.0783 23.478 56.4544 23.4478Z" fill="#1C8B7F"/>
<path d="M47.0964 26.9895C47.4228 26.942 47.7535 26.8944 48.1101 26.8425C49.5022 29.5963 50.8704 32.3198 52.256 35.0326C52.8893 36.2711 53.568 37.4859 54.2143 38.718C54.6034 39.4615 54.5926 39.468 54.4456 40.4688H53.3432C52.0484 37.8707 50.7623 35.253 49.4438 32.6506C48.7845 31.3493 48.0583 30.0827 47.3687 28.7944C47.0748 28.2454 46.8284 27.6834 47.0964 26.9895Z" fill="#1C8B7F"/>
<path d="M33.3882 118.841C32.3355 118.163 32.2901 117.86 33.0186 117.132C35.8567 114.298 38.6926 111.464 41.5307 108.633C41.8938 108.269 42.257 107.906 42.6331 107.556C42.9465 107.266 43.4263 107.303 43.7246 107.606C44.0748 107.96 43.9754 108.263 43.6598 108.578C42.5488 109.696 41.4485 110.826 40.3354 111.944C38.9088 113.377 37.4778 114.802 36.0426 116.226C35.1715 117.091 34.2896 117.949 33.3839 118.839L33.3882 118.841Z" fill="#1C8B7F"/>
<path d="M90.2641 23.4693C90.5797 23.4433 90.7158 23.4131 90.8498 23.4239C91.5156 23.4736 91.7447 23.7503 91.5523 24.3469C90.8585 26.5019 90.1473 28.6505 89.4405 30.8012C88.7877 32.7876 88.1328 34.7719 87.4887 36.7605C87.3741 37.1128 87.3028 37.4803 87.1925 37.9148C87.0542 37.9494 86.8618 38.0358 86.6716 38.038C86.0167 38.0445 85.7659 37.7937 85.8935 37.1582C86.0404 36.4298 86.2544 35.71 86.4814 35.001C86.9418 33.5636 87.4217 32.1348 87.9058 30.7061C88.4786 29.0158 89.0731 27.3341 89.6372 25.6394C89.8707 24.937 90.0501 24.2172 90.2641 23.4714V23.4693Z" fill="#1C8B7F"/>
<path d="M103.64 48.6851C102.661 47.9869 102.596 47.7621 103.279 47.0294C104.263 45.9746 105.302 44.9759 106.316 43.9514C107.836 42.421 109.349 40.8842 110.875 39.3603C111.506 38.7291 112.159 38.1217 112.803 37.5079C113.14 37.1858 113.488 37.0799 113.901 37.4063C114.323 37.737 114.385 37.9466 114.026 38.3357C113.514 38.8912 112.969 39.4165 112.433 39.9482C110.825 41.5456 109.213 43.1386 107.605 44.7338C106.292 46.0351 104.985 47.3406 103.638 48.683L103.64 48.6851Z" fill="#1C8B7F"/>
<path d="M79.292 119.428H80.6602C80.8721 120.861 81.0104 122.305 81.3173 123.712C81.5054 124.573 81.3779 125.476 81.7929 126.315C82.022 126.777 81.9874 127.372 82.0652 127.908C82.2014 128.846 82.3246 129.786 82.4673 130.722C82.5991 131.595 82.7591 132.462 82.8866 133.336C82.9363 133.668 82.9298 134.008 82.9558 134.462C82.5213 134.49 82.1625 134.514 81.8426 134.533C81.406 134.146 81.3152 133.714 81.2698 133.208C81.1812 132.229 80.9823 131.26 80.8418 130.288C80.7056 129.352 80.6732 128.39 80.4333 127.482C80.0507 126.036 80.1263 124.534 79.6962 123.083C79.3655 121.966 79.4217 120.734 79.2942 119.43L79.292 119.428Z" fill="#1C8B7F"/>
<path d="M114.348 117.775C114.093 118.084 113.885 118.389 113.624 118.639C113.392 118.86 113.155 118.808 112.912 118.564C111.276 116.904 109.631 115.252 107.98 113.605C106.523 112.15 105.055 110.706 103.592 109.256C103.421 109.087 103.24 108.927 103.086 108.742C102.734 108.318 102.764 107.94 103.157 107.583C103.512 107.261 103.704 107.3 104.163 107.754C107.204 110.778 110.245 113.802 113.291 116.821C113.602 117.13 113.941 117.409 114.346 117.772L114.348 117.775Z" fill="#1C8B7F"/>
<path d="M67.4527 36.1936C67.3144 36.2217 67.1479 36.2369 66.9945 36.2887C65.9029 36.6497 65.9504 36.6476 65.8532 35.4738C65.7775 34.5746 65.5549 33.6863 65.4166 32.7914C65.2761 31.8857 65.1766 30.9757 65.0296 30.0722C64.8762 29.1384 64.6773 28.2133 64.5152 27.2817C64.3812 26.5121 64.2558 25.7383 64.1585 24.9623C64.0202 23.8535 63.9121 22.7424 63.7803 21.532H65.1939C65.382 22.9499 65.5506 24.3571 65.7602 25.7578C65.8964 26.6613 66.1039 27.5518 66.2595 28.451C66.4217 29.3805 66.5557 30.3143 66.707 31.2459C66.854 32.1473 67.0139 33.0486 67.1523 33.9521C67.2582 34.646 67.3403 35.3442 67.4549 36.1936H67.4527Z" fill="#1C8B7F"/>
<path d="M43.929 47.438C44.022 48.1188 43.5248 48.3328 42.9823 48.6571C42.7618 48.4344 42.5327 48.1988 42.3014 47.9697C39.1585 44.8506 36.0157 41.7315 32.8706 38.6124C32.4599 38.2039 32.4232 37.8537 32.7777 37.4971C33.1711 37.0994 33.4413 37.0929 33.919 37.5641C35.2829 38.9172 36.6274 40.2898 37.9848 41.6515C39.7292 43.4024 41.4757 45.1532 43.2308 46.8954C43.4405 47.1051 43.6999 47.265 43.9312 47.4401L43.929 47.438Z" fill="#1C8B7F"/>
<path d="M80.6229 36.6195C80.1106 36.425 79.7712 36.2953 79.3951 36.1526C79.3541 35.489 79.4081 34.8492 79.5573 34.1597C79.8815 32.6682 79.9636 31.1271 80.1949 29.614C80.3268 28.7537 80.5689 27.9107 80.7353 27.0548C80.865 26.389 80.9709 25.7168 81.0552 25.0424C81.1525 24.2642 81.2432 23.4818 81.2865 22.6993C81.3492 21.5277 81.615 21.3224 82.9011 21.5818C82.9184 21.7396 82.9681 21.9125 82.9487 22.0746C82.7974 23.2894 82.6569 24.5085 82.458 25.7146C82.3219 26.5403 82.0754 27.3487 81.9241 28.1723C81.7599 29.0693 81.6496 29.9771 81.5091 30.8785C81.3578 31.8469 81.1957 32.8109 81.0465 33.7793C80.9082 34.6742 80.7785 35.5712 80.6229 36.6195Z" fill="#1C8B7F"/>
<path d="M72.7793 20.6867C73.2073 20.6673 73.538 20.6521 73.8579 20.6392C74.0892 21.4757 74.1238 34.795 73.9055 35.8909H72.7815V20.6867H72.7793Z" fill="#1C8B7F"/>
<path d="M72.8191 120.044H73.8696C74.0771 120.816 74.1311 133.683 73.9322 135H72.8774C72.6764 134.241 72.618 121.484 72.8191 120.044Z" fill="#1C8B7F"/>
<path d="M37.0848 104.072V105.166C35.5609 106.247 34.0197 107.321 32.5023 108.423C31.0908 109.45 29.6966 110.503 28.3025 111.553C27.7167 111.994 27.2044 112.053 26.9623 111.666C26.7073 111.257 26.8888 110.749 27.3968 110.373C29.34 108.933 31.2702 107.477 33.2221 106.05C34.104 105.406 35.0443 104.842 35.9197 104.191C36.2763 103.927 36.5919 103.91 37.0804 104.072H37.0848Z" fill="#1C8B7F"/>
<path d="M110.574 104.239C111.047 104.505 111.512 104.712 111.914 105.002C114.44 106.828 116.952 108.674 119.47 110.509C120.076 110.95 120.162 111.203 119.812 111.627C119.481 112.025 119.016 112.031 118.552 111.687C116.323 110.045 114.09 108.41 111.857 106.77C111.499 106.506 111.155 106.217 110.783 105.972C109.852 105.361 109.847 105.369 110.571 104.237L110.574 104.239Z" fill="#1C8B7F"/>
<path d="M33.0496 47.7646C33.2161 48.2315 33.054 48.6054 32.667 48.8324C32.2996 49.0485 31.9689 48.8648 31.6425 48.6205C30.3909 47.6803 29.1178 46.7638 27.8555 45.8365C27.6069 45.6549 27.3562 45.4734 27.1292 45.2637C26.8266 44.9848 26.7596 44.4099 27.0103 44.1591C27.3129 43.8544 27.6285 43.8306 28.0089 44.1159C29.3988 45.1621 30.8124 46.178 32.2196 47.2026C32.492 47.4014 32.7773 47.583 33.0496 47.7667V47.7646Z" fill="#1C8B7F"/>
<path d="M113.899 48.8347C113.802 48.5083 113.709 48.1862 113.597 47.8101C114.913 46.8526 116.203 45.9144 117.492 44.972C117.822 44.7299 118.129 44.4533 118.469 44.2241C118.914 43.9215 119.413 43.9756 119.77 44.3279C120.114 44.6672 120.094 44.9201 119.686 45.2184C118.114 46.3619 116.532 47.4859 114.976 48.6509C114.628 48.9103 114.321 48.96 113.897 48.8347H113.899Z" fill="#1C8B7F"/>
</g>
<defs>
<clipPath id="clip0_41_3863">
<rect width="480" height="155.198" fill="white" transform="translate(0.485352 0.401123)"/>
</clipPath>
</defs>
</svg>
